<svg width="112" height="50" viewBox="0 0 112 50" fill="none" xmlns="http://www.w3.org/2000/svg">
<path fill-rule="evenodd" clip-rule="evenodd" d="M0 37.5029V12.4963L21.5784 0L43.1607 12.4951V37.5041L21.5784 50L0 37.5029ZM25.5579 40.5445L25.5581 31.9118L33.0107 36.2283L33.0158 36.2265L25.5579 40.5445ZM36.9873 29.315L29.5365 24.9999L36.9873 20.6852V29.315ZM33.0135 13.7717L25.5585 18.088L25.5587 9.45568L33.0135 13.7717ZM17.6018 9.45472V18.0882L10.1481 13.7713L17.6018 9.45472ZM6.17338 20.6848L13.6236 24.9997L6.17338 29.3146V20.6848ZM10.1448 36.2264L17.6018 31.9115V40.5449V40.5451L10.1448 36.2264Z" fill="#E49D2D"/>
<path fill-rule="evenodd" clip-rule="evenodd" d="M25.5577 40.5447L25.5579 31.9121L33.0104 36.2285L36.9896 33.9233V29.3168L29.5363 25.0001L36.9894 20.6841L36.9888 16.0748L33.0118 13.7716L25.5583 18.0882L25.5585 9.45591L21.5788 7.15186L17.6016 9.45494V40.5451L21.5788 42.8486L25.5577 40.5447Z" fill="#006CB5"/>
<path d="M53.3223 25.9831H55.9927V28.6693H53.3223V25.9831ZM53.3223 9.44837V23.926H56.0232V16.982L60.9581 23.9037H64.4898L58.8926 16.0396L64.3281 9.44837H61.1299L56.0232 15.6241V9.44952L53.3223 9.44837ZM109.33 23.9274V17.2501C109.33 15.8973 108.703 15.2212 107.448 15.2212C106.788 15.2212 106.248 15.5019 105.83 16.0633C105.412 16.6244 105.203 17.2707 105.203 18.0017V23.9274H102.533V13.523H105.203V14.5713C105.486 14.1117 105.843 13.7461 106.276 13.4754C106.882 13.0833 107.624 12.8873 108.501 12.8873C109.512 12.8873 110.348 13.1986 111.009 13.821C111.67 14.4428 112.001 15.2145 112.001 16.1343V23.9274H109.33ZM97.835 23.9274V13.523H100.506V23.9274H97.835ZM97.835 9.43701H100.506V12.1226H97.835V9.43701ZM86.218 9.43701H88.8884V14.5713C89.1715 14.1928 89.4213 13.9152 89.6371 13.7394C90.3111 13.1849 91.1007 12.9073 92.0041 12.9073C93.4609 12.9073 94.5869 13.4618 95.3823 14.5713C96.1108 15.5999 96.4753 16.9463 96.4753 18.6103C96.4753 20.1795 96.1177 21.4849 95.4026 22.5272C94.5938 23.7172 93.4609 24.3128 92.0041 24.3128C91.087 24.3128 90.2911 24.0352 89.6165 23.4808C89.4008 23.3048 89.1584 23.0274 88.8884 22.6487V23.9274H86.218V9.43701ZM88.8275 18.6103C88.8275 19.652 89.0302 20.4733 89.4344 21.0758C89.8392 21.6776 90.433 21.9789 91.215 21.9789C92.011 21.9789 92.6073 21.6815 93.0059 21.0858C93.4032 20.4908 93.6028 19.6651 93.6028 18.6103C93.6028 17.5682 93.4001 16.7461 92.9951 16.1443C92.5904 15.5425 91.9973 15.2412 91.215 15.2412C90.4193 15.2412 89.8223 15.5387 89.4244 16.1343C89.0266 16.7294 88.8275 17.5551 88.8275 18.6103ZM81.3969 23.9274V13.523H84.0667V23.9274H81.3969ZM81.3969 9.43701H84.0667V12.1226H81.3969V9.43701ZM76.4792 23.9274V9.43701H79.1498V23.9274H76.4792ZM67.5234 13.523V19.9494C67.5234 21.3017 68.1508 21.9789 69.4056 21.9789C70.0664 21.9789 70.6055 21.6982 71.0233 21.1363C71.4417 20.5757 71.6507 19.9294 71.6507 19.1984V13.523H74.3211V23.9274H71.6507V22.6281C71.3678 23.0884 71.0102 23.454 70.5788 23.7241C69.9713 24.1168 69.2301 24.3128 68.3534 24.3128C67.3418 24.3128 66.5048 24.0015 65.8446 23.3791C65.1837 22.7567 64.853 21.9859 64.853 21.0658V13.523H67.5234ZM60.8456 36.617C60.8456 36.7217 60.8257 36.8503 60.7848 37.0093C60.7412 37.1645 60.6735 37.3268 60.5827 37.4995C60.4919 37.6722 60.37 37.8345 60.2221 37.9865C60.0703 38.1388 59.8918 38.2603 59.6755 38.3552C59.4598 38.453 59.2104 38.5011 58.9237 38.5036C58.4992 38.5011 58.1483 38.4157 57.8718 38.2505C57.5987 38.0882 57.383 37.8749 57.2283 37.6081C57.0728 37.3405 56.9615 37.0498 56.8905 36.7386C56.8197 36.4243 56.7761 36.116 56.7588 35.8117C56.7419 35.5042 56.7358 35.2336 56.7389 34.9935C56.7389 34.7228 56.7588 34.4421 56.803 34.1547C56.8433 33.8634 56.9174 33.5864 57.0156 33.3157C57.117 33.0419 57.2549 32.798 57.4235 32.5816C57.595 32.3652 57.8113 32.1931 58.0675 32.0639C58.3238 31.9355 58.6303 31.8712 58.984 31.8682H59.1258C59.4292 31.8712 59.683 31.9294 59.895 32.0441C60.1039 32.1558 60.2724 32.3042 60.4073 32.48C60.5391 32.6596 60.6399 32.8486 60.7144 33.0483C60.7848 33.2477 60.8387 33.4374 60.8662 33.6133H63.7387C63.6815 32.9403 63.536 32.3691 63.3072 31.8888C63.0746 31.4117 62.7881 31.0155 62.4405 30.7013C62.0966 30.3869 61.7187 30.1399 61.3176 29.9603C60.9134 29.7813 60.5086 29.6529 60.1077 29.5816C59.7021 29.5069 59.3285 29.4702 58.984 29.4738C58.0775 29.4769 57.2954 29.6259 56.6412 29.9166C55.9902 30.211 55.4543 30.6233 55.0396 31.1578C54.6248 31.6922 54.3178 32.3248 54.1187 33.0519C53.9236 33.7791 53.8259 34.5844 53.8259 35.4599C53.8222 35.9203 53.8664 36.3975 53.9541 36.8907C54.0449 37.3878 54.1965 37.8681 54.4122 38.3346C54.6279 38.8017 54.9252 39.2246 55.3025 39.6C55.68 39.9749 56.1556 40.2731 56.732 40.4964C57.3052 40.7195 57.9967 40.8312 58.8024 40.8381C59.4598 40.8345 60.033 40.7565 60.5286 40.6011C61.0241 40.4488 61.4525 40.2455 61.807 39.9924C62.1637 39.7354 62.4641 39.4547 62.7034 39.1467C62.9435 38.8354 63.1318 38.5243 63.2767 38.2062C63.4185 37.8918 63.526 37.5942 63.5938 37.3168C63.6609 37.0392 63.7051 36.806 63.7181 36.617H60.8456ZM68.0139 25.9831H65.1817V40.5538H68.0139V25.9831ZM79.5657 29.7576H76.7335V35.9876C76.7305 36.468 76.6597 36.8671 76.5247 37.1851C76.3866 37.5026 76.2113 37.7534 75.9918 37.9392C75.7724 38.1219 75.5367 38.2536 75.2836 38.3315C75.0312 38.4095 74.785 38.4463 74.5487 38.4432C74.3299 38.4463 74.1104 38.4195 73.8946 38.3652C73.6789 38.3115 73.4799 38.2168 73.3014 38.0745C73.1223 37.9323 72.9807 37.7295 72.873 37.4658C72.7648 37.2051 72.7114 36.8671 72.7076 36.4549V29.7576H69.8756V36.8609C69.8786 37.5499 69.97 38.1456 70.1485 38.6465C70.3276 39.1467 70.5838 39.5596 70.9108 39.8838C71.2378 40.2088 71.6221 40.4488 72.0704 40.6042C72.5155 40.7601 73.0043 40.8381 73.5371 40.8381C74.2894 40.8345 74.9398 40.6791 75.4962 40.3678C76.049 40.0598 76.4873 39.6131 76.8143 39.0319H76.8548V40.5538H79.5657V29.7576ZM84.2222 25.9831H81.39V40.5538H84.1619V39.194H84.2022C84.4348 39.5964 84.7183 39.9213 85.0553 40.1614C85.3893 40.4015 85.7529 40.5774 86.1408 40.6822C86.532 40.7869 86.9231 40.8412 87.3179 40.8381C87.9552 40.8345 88.5216 40.7265 89.0172 40.5201C89.5096 40.3098 89.9374 40.0191 90.295 39.6474C90.6523 39.2751 90.946 38.8454 91.1748 38.3552C91.4041 37.8681 91.5764 37.3405 91.6839 36.776C91.7952 36.211 91.8494 35.629 91.8494 35.0341C91.8463 34.1004 91.7212 33.2859 91.4857 32.5886C91.2456 31.8918 90.9185 31.3137 90.5007 30.8534C90.086 30.3937 89.6104 30.0452 89.0743 29.8188C88.5416 29.5886 87.975 29.4738 87.3781 29.4738C86.9262 29.4769 86.5289 29.5312 86.185 29.6392C85.8443 29.7476 85.5508 29.886 85.3046 30.055C85.0589 30.2279 84.8496 30.4106 84.6811 30.6033C84.5125 30.796 84.3746 30.982 84.2632 31.1578H84.2222V25.9831ZM88.9364 35.2368C88.9364 35.4975 88.9158 35.7749 88.8686 36.0687C88.825 36.363 88.7473 36.6537 88.6429 36.9381C88.5347 37.2257 88.3928 37.4858 88.2145 37.7228C88.036 37.9559 87.8165 38.1456 87.5505 38.2878C87.2874 38.4293 86.9734 38.5011 86.6097 38.5036C86.1608 38.5011 85.7771 38.4126 85.4564 38.2436C85.1392 38.0745 84.8799 37.845 84.6811 37.5538C84.4784 37.2625 84.3335 36.9314 84.2389 36.559C84.1444 36.1904 84.1009 35.8049 84.1009 35.3989C84.0978 34.9629 84.135 34.5401 84.2053 34.1277C84.2799 33.7181 84.4079 33.3463 84.5864 33.0183C84.7649 32.6865 85.0148 32.4226 85.3321 32.2268C85.6453 32.0341 86.0464 31.9325 86.5289 31.9294C86.9772 31.9325 87.3545 32.0241 87.6649 32.2062C87.9719 32.3858 88.2213 32.6328 88.4066 32.9439C88.5957 33.2547 88.7306 33.6064 88.8151 33.9993C88.8953 34.3948 88.9394 34.8069 88.9364 35.2368Z" fill="#006CB5"/>
</svg>
